{
  "asset": {
    "version": "2.0",
    "generator": "THREE.GLTFExporter"
  },
  "scenes": [
    {
      "name": "Scene",
      "nodes": [
        10
      ]
    }
  ],
  "scene": 0,
  "nodes": [
    {
      "name": "Cylinder003_Material001_0",
      "extras": {
        "name": "Cylinder.003_Material.001_0"
      },
      "mesh": 0
    },
    {
      "matrix": [
        0.000003236865294408077,
        -42.87358093261708,
        7.139885504928256e-15,
        0,
        0.0000032368653039279245,
        2.284763361577042e-13,
        -42.87358093261708,
        0,
        42.87358093261696,
        0.0000032368653039279245,
        0.000003236865294408077,
        0,
        0,
        0.25101709365844727,
        0,
        1
      ],
      "name": "Cylinder003",
      "extras": {
        "name": "Cylinder.003"
      },
      "children": [
        0
      ]
    },
    {
      "name": "Cylinder002_Material001_0",
      "extras": {
        "name": "Cylinder.002_Material.001_0"
      },
      "mesh": 1
    },
    {
      "matrix": [
        0.09307178322584467,
        -42.87283506589622,
        -0.2351447241630004,
        0,
        -17.927233876349945,
        -0.25251828694238504,
        38.94476167654754,
        0,
        -38.94546912249863,
        0.013780888730687202,
        -17.927470175718803,
        0,
        -0.3470551371574402,
        29.25092315673828,
        -4.242944717407227,
        1
      ],
      "name": "Cylinder002",
      "extras": {
        "name": "Cylinder.002"
      },
      "children": [
        2
      ]
    },
    {
      "name": "Cylinder004_Material001_0",
      "extras": {
        "name": "Cylinder.004_Material.001_0"
      },
      "mesh": 2
    },
    {
      "matrix": [
        -0.18231686483842865,
        -42.87283503826922,
        0.1752664480906191,
        0,
        32.47881285429451,
        -0.25252384166806596,
        -27.985833724775453,
        0,
        27.986379153477248,
        0.013765043407709168,
        32.479321642963406,
        0,
        -2.974958658218384,
        57.73493576049805,
        -1.4573544263839722,
        1
      ],
      "name": "Cylinder004",
      "extras": {
        "name": "Cylinder.004"
      },
      "children": [
        4
      ]
    },
    {
      "matrix": [
        41.1030993617538,
        10.556424602798437,
        -0.000008699431879959884,
        0,
        -10.556424602798849,
        41.10309936175461,
        -9.69650586954715e-7,
        0,
        0.0000081847725504487,
        0.000003103197639897504,
        42.43704605102449,
        0,
        66.90961456298828,
        46.58979034423828,
        -0.00001445484667783603,
        1
      ],
      "name": "Cylinder005",
      "extras": {
        "name": "Cylinder.005"
      }
    },
    {
      "name": "RootNode",
      "extras": {
        "name": "RootNode"
      },
      "children": [
        1,
        3,
        5,
        6
      ]
    },
    {
      "matrix": [
        1,
        0,
        0,
        0,
        0,
        2.220446049250313e-16,
        1,
        0,
        0,
        -1,
        2.220446049250313e-16,
        0,
        0,
        0,
        0,
        1
      ],
      "name": "7a441f423ec940939a26dfb68db17a02fbx",
      "extras": {
        "name": "7a441f423ec940939a26dfb68db17a02.fbx"
      },
      "children": [
        7
      ]
    },
    {
      "matrix": [
        1,
        0,
        0,
        0,
        0,
        2.220446049250313e-16,
        -1,
        0,
        0,
        1,
        2.220446049250313e-16,
        0,
        0,
        0,
        0,
        1
      ],
      "name": "Sketchfab_model",
      "extras": {
        "name": "Sketchfab_model"
      },
      "children": [
        8
      ]
    },
    {
      "name": "scene.gltf",
      "children": [
        9
      ]
    }
  ],
  "bufferViews": [
    {
      "buffer": 0,
      "byteOffset": 0,
      "byteLength": 19500,
      "target": 34962,
      "byteStride": 12
    },
    {
      "buffer": 0,
      "byteOffset": 19500,
      "byteLength": 19500,
      "target": 34962,
      "byteStride": 12
    },
    {
      "buffer": 0,
      "byteOffset": 39000,
      "byteLength": 26000,
      "target": 34962,
      "byteStride": 16
    },
    {
      "buffer": 0,
      "byteOffset": 65000,
      "byteLength": 13000,
      "target": 34962,
      "byteStride": 8
    },
    {
      "buffer": 0,
      "byteOffset": 78000,
      "byteLength": 13000,
      "target": 34962,
      "byteStride": 8
    },
    {
      "buffer": 0,
      "byteOffset": 91000,
      "byteLength": 33792,
      "target": 34963
    },
    {
      "buffer": 0,
      "byteOffset": 124792,
      "byteLength": 19500,
      "target": 34962,
      "byteStride": 12
    },
    {
      "buffer": 0,
      "byteOffset": 144292,
      "byteLength": 19500,
      "target": 34962,
      "byteStride": 12
    },
    {
      "buffer": 0,
      "byteOffset": 163792,
      "byteLength": 26000,
      "target": 34962,
      "byteStride": 16
    },
    {
      "buffer": 0,
      "byteOffset": 189792,
      "byteLength": 13000,
      "target": 34962,
      "byteStride": 8
    },
    {
      "buffer": 0,
      "byteOffset": 202792,
      "byteLength": 13000,
      "target": 34962,
      "byteStride": 8
    },
    {
      "buffer": 0,
      "byteOffset": 215792,
      "byteLength": 33792,
      "target": 34963
    },
    {
      "buffer": 0,
      "byteOffset": 249584,
      "byteLength": 19500,
      "target": 34962,
      "byteStride": 12
    },
    {
      "buffer": 0,
      "byteOffset": 269084,
      "byteLength": 19500,
      "target": 34962,
      "byteStride": 12
    },
    {
      "buffer": 0,
      "byteOffset": 288584,
      "byteLength": 26000,
      "target": 34962,
      "byteStride": 16
    },
    {
      "buffer": 0,
      "byteOffset": 314584,
      "byteLength": 13000,
      "target": 34962,
      "byteStride": 8
    },
    {
      "buffer": 0,
      "byteOffset": 327584,
      "byteLength": 13000,
      "target": 34962,
      "byteStride": 8
    },
    {
      "buffer": 0,
      "byteOffset": 340584,
      "byteLength": 33792,
      "target": 34963
    }
  ],
  "buffers": [
    {
      "byteLength": 374376,
      "uri": "data:application/octet-stream;base64,"
    }
  ],
  "accessors": [
    {
      "bufferView": 0,
      "componentType": 5126,
      "count": 1625,
      "max": [
        0.9998959302902222,
        0.9960193037986755,
        0.9954795837402344
      ],
      "min": [
        -0.9999912977218628,
        -0.9957821369171143,
        -0.9961514472961426
      ],
      "type": "VEC3"
    },
    {
      "bufferView": 1,
      "componentType": 5126,
      "count": 1625,
      "max": [
        0.012394824996590614,
        1.084660530090332,
        1.0598206520080566
      ],
      "min": [
        -0.6896883845329285,
        -1.1039999723434448,
        -1.080054759979248
      ],
      "type": "VEC3"
    },
    {
      "bufferView": 2,
      "componentType": 5126,
      "count": 1625,
      "max": [
        0.9958453178405762,
        0.9999973773956299,
        0.9997182488441467,
        1
      ],
      "min": [
        -0.9971433877944946,
        -0.9998604655265808,
        -0.9999901652336121,
        1
      ],
      "type": "VEC4"
    },
    {
      "bufferView": 3,
      "componentType": 5126,
      "count": 1625,
      "max": [
        0.5126199126243591,
        0.9945939183235168
      ],
      "min": [
        0.00955270230770111,
        0.005406022071838379
      ],
      "type": "VEC2"
    },
    {
      "bufferView": 4,
      "componentType": 5126,
      "count": 1625,
      "max": [
        0.5126199126243591,
        0.9945939183235168
      ],
      "min": [
        0.00955270230770111,
        0.005406022071838379
      ],
      "type": "VEC2"
    },
    {
      "bufferView": 5,
      "componentType": 5125,
      "count": 8448,
      "max": [
        1624
      ],
      "min": [
        0
      ],
      "type": "SCALAR"
    },
    {
      "bufferView": 6,
      "componentType": 5126,
      "count": 1625,
      "max": [
        0.9998959302902222,
        0.9960193037986755,
        0.9954795837402344
      ],
      "min": [
        -0.9999912977218628,
        -0.9957821369171143,
        -0.9961514472961426
      ],
      "type": "VEC3"
    },
    {
      "bufferView": 7,
      "componentType": 5126,
      "count": 1625,
      "max": [
        0.012394824996590614,
        1.084660530090332,
        1.0598206520080566
      ],
      "min": [
        -0.6896883845329285,
        -1.1039999723434448,
        -1.080054759979248
      ],
      "type": "VEC3"
    },
    {
      "bufferView": 8,
      "componentType": 5126,
      "count": 1625,
      "max": [
        0.9958453178405762,
        0.9999973773956299,
        0.9997182488441467,
        1
      ],
      "min": [
        -0.9971433877944946,
        -0.9998604655265808,
        -0.9999901652336121,
        1
      ],
      "type": "VEC4"
    },
    {
      "bufferView": 9,
      "componentType": 5126,
      "count": 1625,
      "max": [
        0.5126199126243591,
        0.9945939183235168
      ],
      "min": [
        0.00955270230770111,
        0.005406022071838379
      ],
      "type": "VEC2"
    },
    {
      "bufferView": 10,
      "componentType": 5126,
      "count": 1625,
      "max": [
        0.5126199126243591,
        0.9945939183235168
      ],
      "min": [
        0.00955270230770111,
        0.005406022071838379
      ],
      "type": "VEC2"
    },
    {
      "bufferView": 11,
      "componentType": 5125,
      "count": 8448,
      "max": [
        1624
      ],
      "min": [
        0
      ],
      "type": "SCALAR"
    },
    {
      "bufferView": 12,
      "componentType": 5126,
      "count": 1625,
      "max": [
        0.9998959302902222,
        0.9960193037986755,
        0.9954795837402344
      ],
      "min": [
        -0.9999912977218628,
        -0.9957821369171143,
        -0.9961514472961426
      ],
      "type": "VEC3"
    },
    {
      "bufferView": 13,
      "componentType": 5126,
      "count": 1625,
      "max": [
        0.012394824996590614,
        1.084660530090332,
        1.0598206520080566
      ],
      "min": [
        -0.6896883845329285,
        -1.1039999723434448,
        -1.080054759979248
      ],
      "type": "VEC3"
    },
    {
      "bufferView": 14,
      "componentType": 5126,
      "count": 1625,
      "max": [
        0.9958453178405762,
        0.9999973773956299,
        0.9997182488441467,
        1
      ],
      "min": [
        -0.9971433877944946,
        -0.9998604655265808,
        -0.9999901652336121,
        1
      ],
      "type": "VEC4"
    },
    {
      "bufferView": 15,
      "componentType": 5126,
      "count": 1625,
      "max": [
        0.5126199126243591,
        0.9945939183235168
      ],
      "min": [
        0.00955270230770111,
        0.005406022071838379
      ],
      "type": "VEC2"
    },
    {
      "bufferView": 16,
      "componentType": 5126,
      "count": 1625,
      "max": [
        0.5126199126243591,
        0.9945939183235168
      ],
      "min": [
        0.00955270230770111,
        0.005406022071838379
      ],
      "type": "VEC2"
    },
    {
      "bufferView": 17,
      "componentType": 5125,
      "count": 8448,
      "max": [
        1624
      ],
      "min": [
        0
      ],
      "type": "SCALAR"
    }
  ],
  "materials": [
    {
      "pbrMetallicRoughness": {
        "metallicFactor": 0,
        "roughnessFactor": 1
      },
      "doubleSided": true,
      "name": "Material.001"
    }
  ],
  "meshes": [
    {
      "primitives": [
        {
          "mode": 4,
          "attributes": {
            "NORMAL": 0,
            "POSITION": 1,
            "TANGENT": 2,
            "TEXCOORD_0": 3,
            "TEXCOORD_1": 4
          },
          "indices": 5,
          "material": 0
        }
      ]
    },
    {
      "primitives": [
        {
          "mode": 4,
          "attributes": {
            "NORMAL": 6,
            "POSITION": 7,
            "TANGENT": 8,
            "TEXCOORD_0": 9,
            "TEXCOORD_1": 10
          },
          "indices": 11,
          "material": 0
        }
      ]
    },
    {
      "primitives": [
        {
          "mode": 4,
          "attributes": {
            "NORMAL": 12,
            "POSITION": 13,
            "TANGENT": 14,
            "TEXCOORD_0": 15,
            "TEXCOORD_1": 16
          },
          "indices": 17,
          "material": 0
        }
      ]
    }
  ]
}